<svg xmlns="http://www.w3.org/2000/svg" viewBox="-10 -10 420 420" width="800" height="800" style="background: #2a261c;">
<rect x="-2" y="-2" width="404" height="404" fill="none" stroke="#caba96" stroke-width="4"/>
<rect x="0" y="39" width="22" height="2" fill="#caba96"/>
<rect x="-1" y="40" width="2" height="22" fill="#caba96"/>
<rect x="0" y="59" width="22" height="2" fill="#caba96"/>
<rect x="0" y="99" width="22" height="2" fill="#caba96"/>
<rect x="-1" y="100" width="2" height="22" fill="#caba96"/>
<rect x="-1" y="180" width="2" height="22" fill="#caba96"/>
<rect x="0" y="199" width="22" height="2" fill="#caba96"/>
<rect x="-1" y="260" width="2" height="22" fill="#caba96"/>
<rect x="0" y="279" width="22" height="2" fill="#caba96"/>
<rect x="0" y="299" width="22" height="2" fill="#caba96"/>
<rect x="-1" y="300" width="2" height="22" fill="#caba96"/>
<rect x="-1" y="380" width="2" height="22" fill="#caba96"/>
<rect x="20" y="-1" width="22" height="2" fill="#caba96"/>
<rect x="19" y="0" width="2" height="22" fill="#caba96"/>
<rect x="20" y="39" width="22" height="2" fill="#caba96"/>
<rect x="20" y="59" width="22" height="2" fill="#caba96"/>
<rect x="19" y="60" width="2" height="22" fill="#caba96"/>
<rect x="20" y="79" width="22" height="2" fill="#caba96"/>
<rect x="19" y="80" width="2" height="22" fill="#caba96"/>
<rect x="20" y="99" width="22" height="2" fill="#caba96"/>
<rect x="19" y="100" width="2" height="22" fill="#caba96"/>
<rect x="19" y="120" width="2" height="22" fill="#caba96"/>
<circle cx="30" cy="130" r="2" fill="#fff5b6"/>
<rect x="20" y="139" width="22" height="2" fill="#caba96"/>
<rect x="19" y="140" width="2" height="22" fill="#caba96"/>
<rect x="20" y="179" width="22" height="2" fill="#caba96"/>
<rect x="19" y="180" width="2" height="22" fill="#caba96"/>
<rect x="20" y="199" width="22" height="2" fill="#caba96"/>
<rect x="19" y="220" width="2" height="22" fill="#caba96"/>
<rect x="20" y="259" width="22" height="2" fill="#caba96"/>
<rect x="19" y="260" width="2" height="22" fill="#caba96"/>
<rect x="20" y="279" width="22" height="2" fill="#caba96"/>
<rect x="20" y="299" width="22" height="2" fill="#caba96"/>
<rect x="20" y="339" width="22" height="2" fill="#caba96"/>
<rect x="19" y="340" width="2" height="22" fill="#caba96"/>
<rect x="20" y="359" width="22" height="2" fill="#caba96"/>
<rect x="40" y="19" width="22" height="2" fill="#caba96"/>
<rect x="39" y="40" width="2" height="22" fill="#caba96"/>
<rect x="39" y="60" width="2" height="22" fill="#caba96"/>
<rect x="39" y="80" width="2" height="22" fill="#caba96"/>
<rect x="40" y="139" width="22" height="2" fill="#caba96"/>
<rect x="39" y="180" width="2" height="22" fill="#caba96"/>
<rect x="40" y="199" width="22" height="2" fill="#caba96"/>
<rect x="39" y="200" width="2" height="22" fill="#caba96"/>
<rect x="39" y="220" width="2" height="22" fill="#caba96"/>
<rect x="40" y="239" width="22" height="2" fill="#caba96"/>
<rect x="39" y="240" width="2" height="22" fill="#caba96"/>
<rect x="39" y="260" width="2" height="22" fill="#caba96"/>
<rect x="39" y="300" width="2" height="22" fill="#caba96"/>
<rect x="40" y="319" width="22" height="2" fill="#caba96"/>
<rect x="39" y="340" width="2" height="22" fill="#caba96"/>
<rect x="59" y="0" width="2" height="22" fill="#caba96"/>
<rect x="60" y="39" width="22" height="2" fill="#caba96"/>
<rect x="60" y="59" width="22" height="2" fill="#caba96"/>
<rect x="60" y="79" width="22" height="2" fill="#caba96"/>
<rect x="59" y="80" width="2" height="22" fill="#caba96"/>
<rect x="59" y="100" width="2" height="22" fill="#caba96"/>
<rect x="60" y="119" width="22" height="2" fill="#caba96"/>
<rect x="59" y="120" width="2" height="22" fill="#caba96"/>
<rect x="59" y="140" width="2" height="22" fill="#caba96"/>
<rect x="59" y="160" width="2" height="22" fill="#caba96"/>
<rect x="60" y="179" width="22" height="2" fill="#caba96"/>
<rect x="60" y="199" width="22" height="2" fill="#caba96"/>
<rect x="59" y="200" width="2" height="22" fill="#caba96"/>
<rect x="59" y="220" width="2" height="22" fill="#caba96"/>
<rect x="60" y="239" width="22" height="2" fill="#caba96"/>
<rect x="59" y="240" width="2" height="22" fill="#caba96"/>
<rect x="59" y="260" width="2" height="22" fill="#caba96"/>
<rect x="59" y="280" width="2" height="22" fill="#caba96"/>
<rect x="60" y="299" width="22" height="2" fill="#caba96"/>
<rect x="60" y="339" width="22" height="2" fill="#caba96"/>
<rect x="60" y="359" width="22" height="2" fill="#caba96"/>
<rect x="59" y="360" width="2" height="22" fill="#caba96"/>
<rect x="79" y="0" width="2" height="22" fill="#caba96"/>
<rect x="79" y="40" width="2" height="22" fill="#caba96"/>
<rect x="80" y="59" width="22" height="2" fill="#caba96"/>
<rect x="79" y="60" width="2" height="22" fill="#caba96"/>
<rect x="80" y="99" width="22" height="2" fill="#caba96"/>
<rect x="80" y="139" width="22" height="2" fill="#caba96"/>
<rect x="80" y="159" width="22" height="2" fill="#caba96"/>
<rect x="80" y="179" width="22" height="2" fill="#caba96"/>
<rect x="80" y="199" width="22" height="2" fill="#caba96"/>
<rect x="79" y="200" width="2" height="22" fill="#caba96"/>
<rect x="80" y="219" width="22" height="2" fill="#caba96"/>
<rect x="79" y="220" width="2" height="22" fill="#caba96"/>
<rect x="80" y="239" width="22" height="2" fill="#caba96"/>
<rect x="79" y="240" width="2" height="22" fill="#caba96"/>
<rect x="79" y="280" width="2" height="22" fill="#caba96"/>
<rect x="80" y="339" width="22" height="2" fill="#caba96"/>
<rect x="79" y="340" width="2" height="22" fill="#caba96"/>
<rect x="79" y="360" width="2" height="22" fill="#caba96"/>
<rect x="79" y="380" width="2" height="22" fill="#caba96"/>
<rect x="99" y="0" width="2" height="22" fill="#caba96"/>
<rect x="99" y="60" width="2" height="22" fill="#caba96"/>
<rect x="100" y="119" width="22" height="2" fill="#caba96"/>
<rect x="99" y="120" width="2" height="22" fill="#caba96"/>
<rect x="99" y="140" width="2" height="22" fill="#caba96"/>
<rect x="99" y="180" width="2" height="22" fill="#caba96"/>
<rect x="99" y="200" width="2" height="22" fill="#caba96"/>
<rect x="100" y="239" width="22" height="2" fill="#caba96"/>
<rect x="99" y="240" width="2" height="22" fill="#caba96"/>
<rect x="100" y="299" width="22" height="2" fill="#caba96"/>
<rect x="99" y="320" width="2" height="22" fill="#caba96"/>
<rect x="100" y="339" width="22" height="2" fill="#caba96"/>
<rect x="100" y="359" width="22" height="2" fill="#caba96"/>
<circle cx="110" cy="370" r="2" fill="#fff5b6"/>
<rect x="119" y="0" width="2" height="22" fill="#caba96"/>
<rect x="120" y="19" width="22" height="2" fill="#caba96"/>
<rect x="120" y="59" width="22" height="2" fill="#caba96"/>
<rect x="119" y="60" width="2" height="22" fill="#caba96"/>
<rect x="120" y="79" width="22" height="2" fill="#caba96"/>
<rect x="119" y="80" width="2" height="22" fill="#caba96"/>
<rect x="120" y="99" width="22" height="2" fill="#caba96"/>
<rect x="119" y="140" width="2" height="22" fill="#caba96"/>
<rect x="120" y="159" width="22" height="2" fill="#caba96"/>
<rect x="120" y="199" width="22" height="2" fill="#caba96"/>
<rect x="119" y="200" width="2" height="22" fill="#caba96"/>
<rect x="120" y="219" width="22" height="2" fill="#caba96"/>
<rect x="119" y="220" width="2" height="22" fill="#caba96"/>
<rect x="119" y="240" width="2" height="22" fill="#caba96"/>
<rect x="120" y="319" width="22" height="2" fill="#caba96"/>
<rect x="120" y="339" width="22" height="2" fill="#caba96"/>
<rect x="119" y="340" width="2" height="22" fill="#caba96"/>
<rect x="120" y="359" width="22" height="2" fill="#caba96"/>
<circle cx="130" cy="390" r="2" fill="#fff5b6"/>
<rect x="140" y="-1" width="22" height="2" fill="#caba96"/>
<circle cx="150" cy="10" r="2" fill="#fff5b6"/>
<rect x="139" y="20" width="2" height="22" fill="#caba96"/>
<rect x="140" y="39" width="22" height="2" fill="#caba96"/>
<rect x="139" y="60" width="2" height="22" fill="#caba96"/>
<rect x="139" y="100" width="2" height="22" fill="#caba96"/>
<rect x="139" y="120" width="2" height="22" fill="#caba96"/>
<rect x="140" y="139" width="22" height="2" fill="#caba96"/>
<rect x="139" y="140" width="2" height="22" fill="#caba96"/>
<rect x="139" y="160" width="2" height="22" fill="#caba96"/>
<rect x="139" y="180" width="2" height="22" fill="#caba96"/>
<rect x="140" y="199" width="22" height="2" fill="#caba96"/>
<rect x="140" y="219" width="22" height="2" fill="#caba96"/>
<rect x="139" y="220" width="2" height="22" fill="#caba96"/>
<rect x="140" y="239" width="22" height="2" fill="#caba96"/>
<rect x="139" y="240" width="2" height="22" fill="#caba96"/>
<rect x="139" y="260" width="2" height="22" fill="#caba96"/>
<rect x="139" y="280" width="2" height="22" fill="#caba96"/>
<rect x="139" y="300" width="2" height="22" fill="#caba96"/>
<circle cx="150" cy="310" r="2" fill="#fff5b6"/>
<rect x="140" y="319" width="22" height="2" fill="#caba96"/>
<rect x="139" y="380" width="2" height="22" fill="#caba96"/>
<rect x="160" y="-1" width="22" height="2" fill="#caba96"/>
<rect x="160" y="19" width="22" height="2" fill="#caba96"/>
<rect x="159" y="20" width="2" height="22" fill="#caba96"/>
<rect x="159" y="40" width="2" height="22" fill="#caba96"/>
<rect x="160" y="59" width="22" height="2" fill="#caba96"/>
<rect x="159" y="80" width="2" height="22" fill="#caba96"/>
<rect x="160" y="99" width="22" height="2" fill="#caba96"/>
<rect x="160" y="119" width="22" height="2" fill="#caba96"/>
<rect x="160" y="139" width="22" height="2" fill="#caba96"/>
<rect x="159" y="140" width="2" height="22" fill="#caba96"/>
<circle cx="170" cy="150" r="2" fill="#fff5b6"/>
<rect x="160" y="179" width="22" height="2" fill="#caba96"/>
<rect x="160" y="199" width="22" height="2" fill="#caba96"/>
<circle cx="170" cy="230" r="2" fill="#fff5b6"/>
<rect x="160" y="259" width="22" height="2" fill="#caba96"/>
<rect x="159" y="340" width="2" height="22" fill="#caba96"/>
<rect x="160" y="379" width="22" height="2" fill="#caba96"/>
<rect x="179" y="20" width="2" height="22" fill="#caba96"/>
<rect x="179" y="40" width="2" height="22" fill="#caba96"/>
<circle cx="190" cy="50" r="2" fill="#fff5b6"/>
<rect x="180" y="59" width="22" height="2" fill="#caba96"/>
<rect x="180" y="79" width="22" height="2" fill="#caba96"/>
<rect x="180" y="99" width="22" height="2" fill="#caba96"/>
<rect x="179" y="100" width="2" height="22" fill="#caba96"/>
<circle cx="190" cy="110" r="2" fill="#fff5b6"/>
<rect x="180" y="119" width="22" height="2" fill="#caba96"/>
<rect x="179" y="180" width="2" height="22" fill="#caba96"/>
<rect x="180" y="199" width="22" height="2" fill="#caba96"/>
<rect x="180" y="219" width="22" height="2" fill="#caba96"/>
<rect x="179" y="220" width="2" height="22" fill="#caba96"/>
<rect x="180" y="239" width="22" height="2" fill="#caba96"/>
<rect x="179" y="320" width="2" height="22" fill="#caba96"/>
<rect x="179" y="340" width="2" height="22" fill="#caba96"/>
<rect x="180" y="359" width="22" height="2" fill="#caba96"/>
<rect x="179" y="360" width="2" height="22" fill="#caba96"/>
<rect x="180" y="379" width="22" height="2" fill="#caba96"/>
<rect x="179" y="380" width="2" height="22" fill="#caba96"/>
<rect x="199" y="0" width="2" height="22" fill="#caba96"/>
<rect x="200" y="19" width="22" height="2" fill="#caba96"/>
<rect x="200" y="39" width="22" height="2" fill="#caba96"/>
<rect x="199" y="40" width="2" height="22" fill="#caba96"/>
<circle cx="210" cy="50" r="2" fill="#fff5b6"/>
<rect x="199" y="60" width="2" height="22" fill="#caba96"/>
<rect x="200" y="79" width="22" height="2" fill="#caba96"/>
<rect x="199" y="80" width="2" height="22" fill="#caba96"/>
<rect x="200" y="99" width="22" height="2" fill="#caba96"/>
<rect x="199" y="100" width="2" height="22" fill="#caba96"/>
<rect x="199" y="120" width="2" height="22" fill="#caba96"/>
<rect x="200" y="139" width="22" height="2" fill="#caba96"/>
<rect x="199" y="140" width="2" height="22" fill="#caba96"/>
<rect x="200" y="159" width="22" height="2" fill="#caba96"/>
<rect x="200" y="179" width="22" height="2" fill="#caba96"/>
<rect x="199" y="200" width="2" height="22" fill="#caba96"/>
<rect x="200" y="219" width="22" height="2" fill="#caba96"/>
<rect x="199" y="260" width="2" height="22" fill="#caba96"/>
<rect x="200" y="299" width="22" height="2" fill="#caba96"/>
<rect x="199" y="300" width="2" height="22" fill="#caba96"/>
<rect x="199" y="320" width="2" height="22" fill="#caba96"/>
<rect x="200" y="339" width="22" height="2" fill="#caba96"/>
<rect x="200" y="359" width="22" height="2" fill="#caba96"/>
<rect x="200" y="379" width="22" height="2" fill="#caba96"/>
<rect x="219" y="0" width="2" height="22" fill="#caba96"/>
<rect x="220" y="19" width="22" height="2" fill="#caba96"/>
<rect x="220" y="59" width="22" height="2" fill="#caba96"/>
<rect x="219" y="60" width="2" height="22" fill="#caba96"/>
<rect x="220" y="79" width="22" height="2" fill="#caba96"/>
<rect x="219" y="80" width="2" height="22" fill="#caba96"/>
<rect x="220" y="99" width="22" height="2" fill="#caba96"/>
<rect x="220" y="119" width="22" height="2" fill="#caba96"/>
<rect x="219" y="120" width="2" height="22" fill="#caba96"/>
<rect x="219" y="140" width="2" height="22" fill="#caba96"/>
<rect x="220" y="159" width="22" height="2" fill="#caba96"/>
<rect x="219" y="160" width="2" height="22" fill="#caba96"/>
<rect x="220" y="199" width="22" height="2" fill="#caba96"/>
<rect x="219" y="200" width="2" height="22" fill="#caba96"/>
<rect x="220" y="219" width="22" height="2" fill="#caba96"/>
<rect x="219" y="220" width="2" height="22" fill="#caba96"/>
<rect x="220" y="279" width="22" height="2" fill="#caba96"/>
<rect x="219" y="300" width="2" height="22" fill="#caba96"/>
<rect x="220" y="339" width="22" height="2" fill="#caba96"/>
<rect x="219" y="340" width="2" height="22" fill="#caba96"/>
<rect x="219" y="360" width="2" height="22" fill="#caba96"/>
<rect x="220" y="379" width="22" height="2" fill="#caba96"/>
<rect x="240" y="-1" width="22" height="2" fill="#caba96"/>
<rect x="239" y="0" width="2" height="22" fill="#caba96"/>
<rect x="240" y="19" width="22" height="2" fill="#caba96"/>
<rect x="239" y="20" width="2" height="22" fill="#caba96"/>
<rect x="240" y="39" width="22" height="2" fill="#caba96"/>
<rect x="239" y="60" width="2" height="22" fill="#caba96"/>
<rect x="239" y="120" width="2" height="22" fill="#caba96"/>
<rect x="240" y="139" width="22" height="2" fill="#caba96"/>
<rect x="240" y="159" width="22" height="2" fill="#caba96"/>
<rect x="240" y="179" width="22" height="2" fill="#caba96"/>
<circle cx="250" cy="210" r="2" fill="#fff5b6"/>
<rect x="239" y="220" width="2" height="22" fill="#caba96"/>
<rect x="239" y="240" width="2" height="22" fill="#caba96"/>
<rect x="240" y="279" width="22" height="2" fill="#caba96"/>
<rect x="240" y="299" width="22" height="2" fill="#caba96"/>
<rect x="240" y="319" width="22" height="2" fill="#caba96"/>
<rect x="240" y="339" width="22" height="2" fill="#caba96"/>
<rect x="240" y="359" width="22" height="2" fill="#caba96"/>
<rect x="239" y="360" width="2" height="22" fill="#caba96"/>
<rect x="260" y="19" width="22" height="2" fill="#caba96"/>
<rect x="260" y="39" width="22" height="2" fill="#caba96"/>
<rect x="259" y="60" width="2" height="22" fill="#caba96"/>
<rect x="260" y="79" width="22" height="2" fill="#caba96"/>
<rect x="259" y="80" width="2" height="22" fill="#caba96"/>
<rect x="260" y="99" width="22" height="2" fill="#caba96"/>
<rect x="260" y="119" width="22" height="2" fill="#caba96"/>
<rect x="260" y="139" width="22" height="2" fill="#caba96"/>
<rect x="260" y="159" width="22" height="2" fill="#caba96"/>
<rect x="259" y="160" width="2" height="22" fill="#caba96"/>
<rect x="260" y="179" width="22" height="2" fill="#caba96"/>
<rect x="260" y="199" width="22" height="2" fill="#caba96"/>
<rect x="260" y="219" width="22" height="2" fill="#caba96"/>
<rect x="259" y="240" width="2" height="22" fill="#caba96"/>
<rect x="260" y="279" width="22" height="2" fill="#caba96"/>
<rect x="259" y="280" width="2" height="22" fill="#caba96"/>
<rect x="259" y="300" width="2" height="22" fill="#caba96"/>
<rect x="259" y="320" width="2" height="22" fill="#caba96"/>
<rect x="260" y="359" width="22" height="2" fill="#caba96"/>
<rect x="259" y="360" width="2" height="22" fill="#caba96"/>
<rect x="259" y="380" width="2" height="22" fill="#caba96"/>
<rect x="280" y="-1" width="22" height="2" fill="#caba96"/>
<rect x="279" y="0" width="2" height="22" fill="#caba96"/>
<rect x="279" y="20" width="2" height="22" fill="#caba96"/>
<rect x="280" y="39" width="22" height="2" fill="#caba96"/>
<rect x="279" y="40" width="2" height="22" fill="#caba96"/>
<rect x="279" y="60" width="2" height="22" fill="#caba96"/>
<rect x="280" y="79" width="22" height="2" fill="#caba96"/>
<rect x="279" y="80" width="2" height="22" fill="#caba96"/>
<rect x="280" y="99" width="22" height="2" fill="#caba96"/>
<rect x="279" y="100" width="2" height="22" fill="#caba96"/>
<rect x="280" y="119" width="22" height="2" fill="#caba96"/>
<rect x="280" y="139" width="22" height="2" fill="#caba96"/>
<rect x="279" y="140" width="2" height="22" fill="#caba96"/>
<rect x="279" y="200" width="2" height="22" fill="#caba96"/>
<rect x="280" y="219" width="22" height="2" fill="#caba96"/>
<rect x="279" y="220" width="2" height="22" fill="#caba96"/>
<rect x="279" y="240" width="2" height="22" fill="#caba96"/>
<rect x="279" y="300" width="2" height="22" fill="#caba96"/>
<rect x="280" y="359" width="22" height="2" fill="#caba96"/>
<rect x="300" y="19" width="22" height="2" fill="#caba96"/>
<rect x="299" y="80" width="2" height="22" fill="#caba96"/>
<rect x="300" y="99" width="22" height="2" fill="#caba96"/>
<rect x="300" y="139" width="22" height="2" fill="#caba96"/>
<rect x="300" y="179" width="22" height="2" fill="#caba96"/>
<rect x="299" y="200" width="2" height="22" fill="#caba96"/>
<rect x="300" y="219" width="22" height="2" fill="#caba96"/>
<rect x="299" y="220" width="2" height="22" fill="#caba96"/>
<rect x="299" y="240" width="2" height="22" fill="#caba96"/>
<rect x="299" y="260" width="2" height="22" fill="#caba96"/>
<rect x="300" y="279" width="22" height="2" fill="#caba96"/>
<rect x="299" y="300" width="2" height="22" fill="#caba96"/>
<rect x="300" y="319" width="22" height="2" fill="#caba96"/>
<rect x="300" y="339" width="22" height="2" fill="#caba96"/>
<rect x="299" y="340" width="2" height="22" fill="#caba96"/>
<rect x="299" y="360" width="2" height="22" fill="#caba96"/>
<rect x="319" y="0" width="2" height="22" fill="#caba96"/>
<rect x="319" y="20" width="2" height="22" fill="#caba96"/>
<rect x="319" y="40" width="2" height="22" fill="#caba96"/>
<rect x="320" y="59" width="22" height="2" fill="#caba96"/>
<rect x="320" y="79" width="22" height="2" fill="#caba96"/>
<rect x="319" y="120" width="2" height="22" fill="#caba96"/>
<rect x="320" y="139" width="22" height="2" fill="#caba96"/>
<rect x="319" y="160" width="2" height="22" fill="#caba96"/>
<rect x="320" y="179" width="22" height="2" fill="#caba96"/>
<rect x="320" y="219" width="22" height="2" fill="#caba96"/>
<rect x="319" y="220" width="2" height="22" fill="#caba96"/>
<rect x="319" y="240" width="2" height="22" fill="#caba96"/>
<rect x="320" y="259" width="22" height="2" fill="#caba96"/>
<rect x="320" y="279" width="22" height="2" fill="#caba96"/>
<rect x="320" y="299" width="22" height="2" fill="#caba96"/>
<rect x="319" y="320" width="2" height="22" fill="#caba96"/>
<rect x="320" y="359" width="22" height="2" fill="#caba96"/>
<rect x="319" y="360" width="2" height="22" fill="#caba96"/>
<rect x="320" y="379" width="22" height="2" fill="#caba96"/>
<rect x="340" y="-1" width="22" height="2" fill="#caba96"/>
<rect x="340" y="19" width="22" height="2" fill="#caba96"/>
<rect x="339" y="60" width="2" height="22" fill="#caba96"/>
<rect x="340" y="79" width="22" height="2" fill="#caba96"/>
<rect x="340" y="99" width="22" height="2" fill="#caba96"/>
<rect x="339" y="100" width="2" height="22" fill="#caba96"/>
<rect x="340" y="119" width="22" height="2" fill="#caba96"/>
<rect x="339" y="120" width="2" height="22" fill="#caba96"/>
<rect x="340" y="139" width="22" height="2" fill="#caba96"/>
<rect x="339" y="140" width="2" height="22" fill="#caba96"/>
<circle cx="350" cy="150" r="2" fill="#fff5b6"/>
<rect x="339" y="160" width="2" height="22" fill="#caba96"/>
<rect x="339" y="180" width="2" height="22" fill="#caba96"/>
<rect x="340" y="219" width="22" height="2" fill="#caba96"/>
<rect x="339" y="220" width="2" height="22" fill="#caba96"/>
<rect x="339" y="260" width="2" height="22" fill="#caba96"/>
<rect x="340" y="279" width="22" height="2" fill="#caba96"/>
<rect x="339" y="280" width="2" height="22" fill="#caba96"/>
<rect x="340" y="319" width="22" height="2" fill="#caba96"/>
<rect x="340" y="339" width="22" height="2" fill="#caba96"/>
<rect x="339" y="360" width="2" height="22" fill="#caba96"/>
<rect x="340" y="379" width="22" height="2" fill="#caba96"/>
<rect x="360" y="-1" width="22" height="2" fill="#caba96"/>
<rect x="359" y="0" width="2" height="22" fill="#caba96"/>
<rect x="360" y="19" width="22" height="2" fill="#caba96"/>
<rect x="359" y="20" width="2" height="22" fill="#caba96"/>
<rect x="359" y="40" width="2" height="22" fill="#caba96"/>
<rect x="360" y="59" width="22" height="2" fill="#caba96"/>
<rect x="359" y="60" width="2" height="22" fill="#caba96"/>
<rect x="360" y="79" width="22" height="2" fill="#caba96"/>
<rect x="359" y="80" width="2" height="22" fill="#caba96"/>
<rect x="360" y="99" width="22" height="2" fill="#caba96"/>
<rect x="360" y="119" width="22" height="2" fill="#caba96"/>
<rect x="359" y="120" width="2" height="22" fill="#caba96"/>
<rect x="360" y="159" width="22" height="2" fill="#caba96"/>
<rect x="359" y="160" width="2" height="22" fill="#caba96"/>
<rect x="359" y="180" width="2" height="22" fill="#caba96"/>
<rect x="360" y="199" width="22" height="2" fill="#caba96"/>
<rect x="360" y="219" width="22" height="2" fill="#caba96"/>
<rect x="360" y="259" width="22" height="2" fill="#caba96"/>
<rect x="360" y="279" width="22" height="2" fill="#caba96"/>
<rect x="360" y="299" width="22" height="2" fill="#caba96"/>
<rect x="359" y="300" width="2" height="22" fill="#caba96"/>
<rect x="359" y="320" width="2" height="22" fill="#caba96"/>
<rect x="360" y="339" width="22" height="2" fill="#caba96"/>
<rect x="359" y="360" width="2" height="22" fill="#caba96"/>
<rect x="379" y="0" width="2" height="22" fill="#caba96"/>
<rect x="380" y="39" width="22" height="2" fill="#caba96"/>
<rect x="380" y="59" width="22" height="2" fill="#caba96"/>
<rect x="380" y="79" width="22" height="2" fill="#caba96"/>
<rect x="379" y="80" width="2" height="22" fill="#caba96"/>
<rect x="379" y="100" width="2" height="22" fill="#caba96"/>
<circle cx="390" cy="130" r="2" fill="#fff5b6"/>
<rect x="380" y="139" width="22" height="2" fill="#caba96"/>
<rect x="379" y="180" width="2" height="22" fill="#caba96"/>
<rect x="379" y="240" width="2" height="22" fill="#caba96"/>
<rect x="380" y="259" width="22" height="2" fill="#caba96"/>
<rect x="379" y="260" width="2" height="22" fill="#caba96"/>
<rect x="380" y="279" width="22" height="2" fill="#caba96"/>
<rect x="380" y="299" width="22" height="2" fill="#caba96"/>
<rect x="379" y="300" width="2" height="22" fill="#caba96"/>
<rect x="379" y="320" width="2" height="22" fill="#caba96"/>
<rect x="380" y="339" width="22" height="2" fill="#caba96"/>
<rect x="379" y="360" width="2" height="22" fill="#caba96"/>
<rect x="379" y="380" width="2" height="22" fill="#caba96"/>
<circle cx="210" cy="210" r="4" fill="#00ff00"/>
<text x="210" y="225" fill="#00ff00" font-family="monospace" font-size="10" text-anchor="middle">SPAWN</text>
</svg>